# xmcd
#
# Track frame offsets: 
#        150
#        11017
#        24823
#        38145
#        47572
#        58132
#        73927
#        87455
#        98475
#        109795
#        122047
#        136020
#
# Disc length: 2002 seconds
#
# Revision: 0
# Processed by: cddbd v1.5.2PL0 Copyright (c) Steve Scherf et al.
# Submitted via: ExactAudioCopy v1.3
#
DISCID=9707d00c
DTITLE=The Kokomo Kings - Too Good To Stay Away From
DYEAR=2017
DGENRE=Blues
TTITLE0=Too Good To Stay Away From
TTITLE1=The River Turned To Steam
TTITLE2=I Can't Go Home Looking Like This
TTITLE3=She's Stealin' Candy
TTITLE4=Pillow Of Gold
TTITLE5=When I Tried To Think
TTITLE6=Girl From The Moon
TTITLE7=I'm Your Plumber
TTITLE8=Silicone Brain
TTITLE9=Standing In The Cold Rain
TTITLE10=A Wasted Day Is Forever Lost
TTITLE11=You Need A Little Dirt (To Make The Grass Green)
EXTD=
EXTT0=
EXTT1=
EXTT2=
EXTT3=
EXTT4=
EXTT5=
EXTT6=
EXTT7=
EXTT8=
EXTT9=
EXTT10=
EXTT11=
PLAYORDER=
